<?xml version="1.0" encoding="utf-8"?>
<!-- Generator: Adobe Illustrator 19.0.0, SVG Export Plug-In . SVG Version: 6.00 Build 0)  -->
<svg version="1.1" id="Layer_1" xmlns="http://www.w3.org/2000/svg" xmlns:xlink="http://www.w3.org/1999/xlink" x="0px" y="0px"
	 viewBox="-3 4.8 17.8 18.2" style="enable-background:new -3 4.8 17.8 18.2;" xml:space="preserve">
<style type="text/css">
	.st0{clip-path:url(#XMLID_2_);}
	.st1{clip-path:url(#XMLID_3_);fill:#919191;}
</style>
<g id="XMLID_2467_">
	<defs>
		<path id="XMLID_2468_" d="M2.4,11.3c0-0.2,0.1-0.4,0.2-0.5c0.1-0.1,0.3-0.2,0.5-0.2h2.1c0.4,0,0.7,0.3,0.7,0.7
			c0,0.4-0.3,0.7-0.7,0.7H3.1c-0.2,0-0.4-0.1-0.5-0.2C2.5,11.6,2.4,11.5,2.4,11.3z M2.4,14.1c0-0.4,0.3-0.7,0.7-0.7h5.6
			c0.4,0,0.7,0.3,0.7,0.7s-0.3,0.7-0.7,0.7H3.1C2.7,14.8,2.4,14.5,2.4,14.1z M2.4,16.9c0-0.2,0.1-0.4,0.2-0.5
			c0.1-0.1,0.3-0.2,0.5-0.2h3.5c0.4,0,0.7,0.3,0.7,0.7S7,17.6,6.6,17.6H3.1c-0.2,0-0.4-0.1-0.5-0.2C2.5,17.2,2.4,17.1,2.4,16.9z
			 M12.9,14.1c0-3.9-3.1-7-7-7s-7,3.1-7,7s3.1,7,7,7S12.9,17.9,12.9,14.1z M-2.5,14.1c0-4.6,3.8-8.4,8.4-8.4s8.4,3.8,8.4,8.4
			c0,4.6-3.8,8.4-8.4,8.4S-2.5,18.7-2.5,14.1z"/>
	</defs>
	<clipPath id="XMLID_2_">
		<use xlink:href="#XMLID_2468_"  style="overflow:visible;"/>
	</clipPath>
	<g id="XMLID_2474_" class="st0">
		<defs>
			<rect id="XMLID_2475_" x="-2.5" y="5.7" width="16.8" height="16.8"/>
		</defs>
		<clipPath id="XMLID_3_">
			<use xlink:href="#XMLID_2475_"  style="overflow:visible;"/>
		</clipPath>
		<rect id="XMLID_2476_" x="-6.9" y="1.2" class="st1" width="25.7" height="25.7"/>
	</g>
</g>
</svg>
