<svg xmlns="http://www.w3.org/2000/svg" width="18" height="18" viewBox="0 0 18 18">
    <g fill="#757575" fill-rule="evenodd" opacity=".8">
        <path d="M11.628 2.181v.763a1.82 1.82 0 0 0-1.454 1.78 1.82 1.82 0 0 0 1.817 1.817h.727a.364.364 0 0 1 0 .727h-1.09v2.18h1.454v-.763a1.82 1.82 0 0 0 1.453-1.78 1.82 1.82 0 0 0-1.817-1.817h-.727a.364.364 0 0 1 0-.727h2.544V2.908h-1.454V2.18h-1.453z"/>
        <path d="M3.634 14.536H2.18v-4.36h1.454v4.36zm10.901-1.454a.727.727 0 0 1-.727.727h-3.633v1.453h2.906a.727.727 0 0 1-.726.727H6.842l-1.755-1.754v-3.759l1.755-1.754h2.606v.726a.727.727 0 0 1-.727.727H7.267v1.454h1.454c1.202 0 2.18-.978 2.18-2.18V7.994a.727.727 0 0 0-.726-.727H6.54a.725.725 0 0 0-.514.213L4.695 8.814a.7.7 0 0 0-.334-.092H1.454a.727.727 0 0 0-.727.726v5.814c0 .402.325.727.727.727H4.36a.708.708 0 0 0 .334-.091l1.332 1.332a.728.728 0 0 0 .514.213h5.814c1.202 0 2.18-.978 2.18-2.18v-.134c.844-.301 1.453-1.1 1.453-2.047v-.727h-1.453v.727z"/>
        <path d="M12.355 0A5.82 5.82 0 0 0 6.54 5.816c0 .247.02.487.05.726H8.06a4.359 4.359 0 0 1-.066-.726 4.365 4.365 0 0 1 4.36-4.36 4.365 4.365 0 0 1 4.361 4.36 4.365 4.365 0 0 1-4.36 4.36c-.248 0-.49-.025-.727-.065v1.469c.238.03.48.05.727.05a5.82 5.82 0 0 0 5.814-5.814A5.82 5.82 0 0 0 12.355 0"/>
    </g>
</svg>
