<?xml version="1.0" encoding="utf-8"?>
<!-- Generator: Adobe Illustrator 19.0.0, SVG Export Plug-In . SVG Version: 6.00 Build 0)  -->
<svg version="1.1" id="Layer_1" xmlns="http://www.w3.org/2000/svg" xmlns:xlink="http://www.w3.org/1999/xlink" x="0px" y="0px"
	 viewBox="-3 4.8 17.8 18.2" style="enable-background:new -3 4.8 17.8 18.2;" xml:space="preserve">
<style type="text/css">
	.st0{fill:#90908F;}
</style>
<g id="XMLID_2484_">
	<path id="XMLID_2425_" class="st0" d="M1.5,18.1"/>
	<path id="XMLID_2370_" class="st0" d="M1.9,13.8"/>
	<polygon id="XMLID_2206_" class="st0" points="1.5,18.2 1.2,21.6 12.5,21.6 11.3,9.6 2.3,9.6 1.9,13.8 3.3,13.8 3.6,11 10,11 
		10.9,20.1 2.7,20.1 2.8,18.2 	"/>
	<g id="XMLID_1874_">
		<rect id="XMLID_1975_" x="-1.5" y="13.1" class="st0" width="8.9" height="1.4"/>
	</g>
	<g id="XMLID_1871_">
		<rect id="XMLID_1872_" x="-0.3" y="17.4" class="st0" width="5.9" height="1.4"/>
	</g>
	<g id="XMLID_1868_">
		<rect id="XMLID_1869_" x="0.1" y="15.4" class="st0" width="6.2" height="1.4"/>
	</g>
	<g id="XMLID_1863_">
		<path id="XMLID_1865_" class="st0" d="M3.5,10.1c0-2.3,1.5-3.8,3.3-3.8c1.8,0,3.3,1.5,3.3,3.8 M8.7,10.1c0-1.5-0.9-2.4-1.9-2.4
			c-1,0-1.9,0.9-1.9,2.4"/>
	</g>
</g>
</svg>
