<svg xmlns="http://www.w3.org/2000/svg" width="18" height="18" viewBox="0 0 18 18">
    <g fill="#757575" fill-rule="evenodd" opacity=".8">
        <path d="M3.634 3.634h8.72v.727h-8.72v-.727zm5.814 11.628H3.634v-.727h5.814v-1.454H3.634V5.814h8.721v.727h1.453V3.634c0-.802-.652-1.454-1.453-1.454H3.634c-.802 0-1.454.652-1.454 1.454v11.628c0 .801.652 1.453 1.454 1.453h5.814v-1.453z"/>
        <path d="M12.355 14.535h2.907v.727h-2.907v-.727zm2.907-5.087v3.633h-2.907V9.448h2.907zm0-1.454h-2.907c-.802 0-1.454.652-1.454 1.454v5.814c0 .801.652 1.453 1.454 1.453h2.907c.801 0 1.453-.652 1.453-1.453V9.448c0-.802-.652-1.454-1.453-1.454z"/>
    </g>
</svg>
