<svg xmlns="http://www.w3.org/2000/svg" width="18" height="18" viewBox="0 0 18 18">
    <g fill="#757575" fill-rule="evenodd" opacity=".8">
        <path d="M9.446 15.99H2.18V5.087h7.268l-.002 10.901zM4.13 2.143a.726.726 0 0 0 .555-.04l1.13-.563 1.128.563a.724.724 0 0 0 .554.04l1.224-.409v1.9H2.907v-1.9l1.223.409zm6.045 1.693V.727A.725.725 0 0 0 9.217.04l-1.893.63L6.139.077a.73.73 0 0 0-.65 0L4.305.669 2.41.04a.726.726 0 0 0-.956.688v3.11a1.45 1.45 0 0 0-.727 1.251v10.901c0 .802.652 1.454 1.453 1.454h7.268c.801 0 1.453-.652 1.453-1.454V5.088a1.45 1.45 0 0 0-.726-1.251z"/>
        <path d="M8.721 5.815H2.907v2.907h5.814zM3.634 10.902a.727.727 0 1 0 0-1.454.727.727 0 0 0 0 1.454M7.994 9.448a.727.727 0 1 0 0 1.455.727.727 0 0 0 0-1.455M5.814 9.448a.727.727 0 1 0 0 1.455.727.727 0 0 0 0-1.455M3.634 13.082a.727.727 0 1 0 0-1.454.727.727 0 0 0 0 1.454M7.994 11.629a.727.727 0 1 0 0 1.454.727.727 0 0 0 0-1.454M5.814 11.629a.727.727 0 1 0 0 1.454.727.727 0 0 0 0-1.454M3.634 15.262a.727.727 0 1 0 0-1.454.727.727 0 0 0 0 1.454M7.994 13.809a.727.727 0 1 0 0 1.454.727.727 0 0 0 0-1.454M5.814 13.809a.727.727 0 1 0 0 1.454.727.727 0 0 0 0-1.454M16.715 13.082h-1.453V7.268h1.453v5.814zm-3.633-5.814h.726v5.814h-.726V7.268zm4.36-1.453h-5.087a.727.727 0 0 0-.727.726v7.268c0 .401.326.727.727.727h5.087a.727.727 0 0 0 .727-.727V6.541a.727.727 0 0 0-.727-.726z"/>
    </g>
</svg>
