<svg xmlns="http://www.w3.org/2000/svg" width="180" height="141" viewBox="0 0 180 141">
    <g fill="none" fill-rule="evenodd">
        <path stroke="#B3B3B3" stroke-dasharray="3.6,6" stroke-linecap="square" stroke-opacity=".496" stroke-width="1.2" d="M10.303 29.526V46.44M29.697 29.526V46.44"/>
        <path stroke="#B3B3B3" stroke-dasharray="3.6,3.6,3.6" stroke-linecap="square" stroke-opacity=".496" stroke-width="1.2" d="M20 29.526V46.44"/>
        <path fill="#E6E7E8" d="M32.5 25.308h-25c-4.149 0-7.5-3.393-7.5-7.594 0-5.185 5-7.565 7.751-7.565C8.901 4.352 13.95 0 20 0c6.05 0 11.1 4.352 12.25 10.149 2.75 0 7.75 2.382 7.75 7.565 0 4.201-3.35 7.594-7.5 7.594z"/>
        <path fill="#FFF" d="M20.287 0C14.15 0 9.027 4.358 7.861 10.158 5.07 10.158 0 12.542 0 17.731c0 4.128 3.277 7.454 7.378 7.577L29.091 3.617C26.808 1.398 23.72 0 20.287 0"/>
        <g>
            <path stroke="#B3B3B3" stroke-dasharray="3.6,6" stroke-linecap="square" stroke-opacity=".496" stroke-width="1.2" d="M150.303 66.526V83.44M169.697 66.526V83.44"/>
            <path stroke="#B3B3B3" stroke-dasharray="3.6,3.6,3.6" stroke-linecap="square" stroke-opacity=".496" stroke-width="1.2" d="M160 66.526V83.44"/>
            <path fill="#E6E7E8" d="M172.5 62.308h-25c-4.15 0-7.5-3.393-7.5-7.594 0-5.185 5-7.565 7.75-7.565C148.9 41.352 153.95 37 160 37s11.1 4.352 12.25 10.149c2.75 0 7.75 2.382 7.75 7.565 0 4.201-3.35 7.594-7.5 7.594z"/>
            <path fill="#FFF" d="M160.286 37c-6.137 0-11.26 4.358-12.426 10.158-2.789 0-7.86 2.384-7.86 7.573 0 4.128 3.277 7.454 7.378 7.577l21.713-21.691c-2.283-2.219-5.37-3.617-8.805-3.617"/>
        </g>
        <g>
            <path fill="#AAF0E9" d="M49.884 126.625s6.777-18.671-4.368-31.266a1.8 1.8 0 0 1 .016-2.404c3.848-4.214 10.678-4.124 20.496 13.904 2.563 4.706 7.909 4.455 12.557 1.797 8.841-5.054 21.595-21.156 34.979-17.235a1.794 1.794 0 0 1 1.234 1.279 1.806 1.806 0 0 1-.47 1.716L67.822 141l-17.938-14.375z"/>
            <path fill="#B3B3B3" d="M139.574 88.89c0 .992-.802 1.797-1.793 1.797H26.564a1.795 1.795 0 0 1-1.794-1.796v-3.594c0-.992.802-1.797 1.794-1.797h111.217c.991 0 1.793.805 1.793 1.797v3.594z"/>
            <path fill="#FFF" d="M82.172 33.188c1.87 0 3.649.082 5.382.206v-5.597c0-.992-.802-1.797-1.794-1.797h-7.175c-.992 0-1.794.805-1.794 1.797v5.597a74.87 74.87 0 0 1 5.381-.206"/>
            <path fill="#E6E7E8" d="M31.945 83.5s-1.793-50.313 50.227-50.313c52.02 0 50.227 50.313 50.227 50.313H31.945z"/>
            <path fill="#0A3631" d="M49.884 126.625L31.945 141h35.877z"/>
            <path fill="#FFF" d="M82.172 33.188c-52.02 0-50.227 50.312-50.227 50.312h50.227V33.187z"/>
            <path fill="#E6E7E8" d="M49.884 126.625s6.777-18.671-4.368-31.266a1.8 1.8 0 0 1 .016-2.404c3.848-4.214 10.678-4.124 20.496 13.904 2.563 4.706 7.909 4.455 12.557 1.797 8.841-5.054 21.595-21.156 34.979-17.235a1.794 1.794 0 0 1 1.234 1.279 1.806 1.806 0 0 1-.47 1.716L67.822 141l-17.938-14.375z"/>
            <path fill="#EBEBEB" d="M114.328 94.415a1.8 1.8 0 0 0-.764-2.995c-13.384-3.92-26.138 12.181-34.98 17.236-4.647 2.657-9.993 2.909-12.556-1.797C56.212 88.833 49.379 88.74 45.53 92.955a1.798 1.798 0 0 0-.016 2.402c11.147 12.598 4.368 31.267 4.368 31.267l4.892 3.921 55.563-32.135 3.99-3.995z"/>
        </g>
    </g>
</svg>
